<svg width="68" height="40" viewBox="0 0 68 40" fill="none" xmlns="http://www.w3.org/2000/svg">
<path d="M2 20C2 17.2386 4.23858 15 7 15H63C65.7614 15 68 17.2386 68 20V20C68 22.7614 65.7614 25 63 25H7C4.23858 25 2 22.7614 2 20V20Z" fill="white"/>
<path d="M2.5 17.3301C3.88071 14.9387 6.93866 14.1193 9.33013 15.5L31.8425 28.4975C34.234 29.8783 35.0534 32.9362 33.6727 35.3277V35.3277C32.292 37.7191 29.234 38.5385 26.8425 37.1578L4.33013 24.1603C1.93866 22.7795 1.11929 19.7216 2.5 17.3301V17.3301Z" fill="white"/>
<path d="M2.5 22.3277C1.11929 19.9362 1.93866 16.8783 4.33013 15.4976L26.8425 2.50001C29.234 1.1193 32.292 1.93868 33.6727 4.33014V4.33014C35.0534 6.7216 34.234 9.77955 31.8425 11.1603L9.33013 24.1578C6.93866 25.5385 3.88071 24.7191 2.5 22.3277V22.3277Z" fill="white"/>
</svg>
