<svg width="17" height="16" viewBox="0 0 17 16" fill="none" xmlns="http://www.w3.org/2000/svg">
<path d="M15.571 1.90997C14.6878 1.02677 13.5185 0.544052 12.2706 0.544052C11.0226 0.544052 9.84982 1.03035 8.96661 1.91355L8.50535 2.37482L8.03693 1.9064C7.15373 1.0232 5.97732 0.533325 4.7294 0.533325C3.48505 0.533325 2.31222 1.01962 1.43259 1.89925C0.549391 2.78245 0.0630943 3.95528 0.06667 5.2032C0.06667 6.45113 0.556542 7.62038 1.43974 8.50358L8.15493 15.2188C8.2479 15.3117 8.37305 15.3618 8.49462 15.3618C8.61619 15.3618 8.74134 15.3153 8.83431 15.2223L15.5638 8.51789C16.447 7.63469 16.9333 6.46185 16.9333 5.21393C16.9369 3.96601 16.4542 2.79317 15.571 1.90997ZM14.8844 7.83493L8.49462 14.1997L2.11913 7.8242C1.41829 7.12336 1.03211 6.19368 1.03211 5.2032C1.03211 4.21273 1.41471 3.28305 2.11555 2.58578C2.81282 1.88852 3.7425 1.50234 4.7294 1.50234C5.71987 1.50234 6.65313 1.88852 7.35397 2.58936L8.16208 3.39747C8.35159 3.58698 8.65553 3.58698 8.84504 3.39747L9.646 2.59651C10.3468 1.89567 11.2801 1.50949 12.267 1.50949C13.2539 1.50949 14.1836 1.89567 14.8844 2.59293C15.5853 3.29377 15.9679 4.22346 15.9679 5.21393C15.9714 6.2044 15.5853 7.13409 14.8844 7.83493Z" fill="#FF0000"/>
</svg>
