<svg width="16" height="16" viewBox="0 0 16 16" fill="none" xmlns="http://www.w3.org/2000/svg">
<path d="M7.00547 1.52713L6.20139 4.31423C6.07789 4.7423 5.6861 5.03704 5.24057 5.03704H1.57409C0.661661 5.03704 0.225871 6.1588 0.899006 6.77478L4.19264 9.78871C4.46727 10.04 4.57957 10.4231 4.48412 10.7829L3.65424 13.9111C3.40299 14.8582 4.5225 15.5641 5.26881 14.9292L7.14947 13.3291C7.52302 13.0113 8.07192 13.0113 8.44547 13.3291L10.3261 14.9291C11.0724 15.5641 12.1919 14.8582 11.9407 13.9111L11.1169 10.8058C11.0183 10.434 11.1416 10.0386 11.4342 9.78889L14.9379 6.79757C15.6447 6.19412 15.218 5.03704 14.2886 5.03704H10.6036C10.147 5.03704 9.74834 4.72774 9.63491 4.28544L8.93494 1.55591C8.68188 0.569136 7.28785 0.548337 7.00547 1.52713Z" fill="#FCE300"/>
</svg>
